<?xml version="1.0" encoding="UTF-8" standalone="no"?>
<svg
   xmlns:dc="http://purl.org/dc/elements/1.1/"
   xmlns:cc="http://creativecommons.org/ns#"
   xmlns:rdf="http://www.w3.org/1999/02/22-rdf-syntax-ns#"
   xmlns:svg="http://www.w3.org/2000/svg"
   xmlns="http://www.w3.org/2000/svg"
   xmlns:sodipodi="http://sodipodi.sourceforge.net/DTD/sodipodi-0.dtd"
   xmlns:inkscape="http://www.inkscape.org/namespaces/inkscape"
   width="270.92075mm"
   height="39.569225mm"
   viewBox="0 0 768.06053 112.17873"
   version="1.1"
   id="svg20"
   sodipodi:docname="mendouksai.svg"
   inkscape:version="0.92.4 (5da689c313, 2019-01-14)">
  <metadata
     id="metadata26">
    <rdf:RDF>
      <cc:Work
         rdf:about="">
        <dc:format>image/svg+xml</dc:format>
        <dc:type
           rdf:resource="http://purl.org/dc/dcmitype/StillImage" />
        <dc:title></dc:title>
      </cc:Work>
    </rdf:RDF>
  </metadata>
  <defs
     id="defs24" />
  <sodipodi:namedview
     pagecolor="#ffffff"
     bordercolor="#666666"
     borderopacity="1"
     objecttolerance="10"
     gridtolerance="10"
     guidetolerance="10"
     inkscape:pageopacity="0"
     inkscape:pageshadow="2"
     inkscape:window-width="1920"
     inkscape:window-height="1017"
     id="namedview22"
     showgrid="false"
     fit-margin-top="0"
     fit-margin-left="0"
     fit-margin-right="0"
     fit-margin-bottom="0"
     inkscape:zoom="0.56222003"
     inkscape:cx="-127.70413"
     inkscape:cy="-42.459053"
     inkscape:window-x="-8"
     inkscape:window-y="-8"
     inkscape:window-maximized="1"
     inkscape:current-layer="svg20" />
  <path
     id="Selection"
     d="m 314.50317,32.728286 c 0,0 0,-21.01 0,-21.01 0,-2.77 0.32,-7.29 -1.74,-9.4 -2.82,-2.88999997 -12.58,-2.30999997 -14.39,1.63 -1,2.17 -0.87,6.34 -0.87,8.77 0,0 0,23 0,23 -0.16,8.44 -3.13,8.13 -6.05,15 -2.64,6.22 -3.02,12.37 -2.95,19 0.32,26.9 19.36,37.710004 44,38.000004 6.03,0.07 12.24,0.95 12.88,-7 0.15,-1.840004 -0.1,-4.240004 -1.05,-5.850004 -2.37,-4.01 -13.24,-3.7 -17.83,-4.31 -13.17,-1.75 -20.54,-10.62 -19.96,-23.84 0.82,-18.6 18.93,-18.91 32.96,-19 2.53,-0.02 5.53,0.18 7.57,-1.6 3.43,-2.98 3.33,-10.96 -0.72,-13.39 -5.79,-3.45 -24.89,-0.93 -31.85,0 z m -238.999996,11.99 c 11.07,6.82 19.54,16.34 13.08,30 -6.41,13.54 -22.27,13.3 -12.4,24.89 0.97,1.140004 2.06,2.230004 3.41,2.920004 3.44,1.75 6.86,0.05 9.91,-1.69 7.28,-4.150004 13.519996,-11.280004 16.529996,-19.120004 2.65,-6.88 2.75,-13.85 1.55,-21 -2.77,-16.42 -11.919996,-28.79 -29.079996,-32 0,-3.94 0.68,-19.13 -1.02,-21.69 -2.54,-3.81 -12.43,-3.05 -14.67,0.84 -1.86,3.23 -1.31,12.79 -1.31,16.85 0,0 -26,2 -26,2 -0.34,-4.07 -2.7,-17.88 -5.51,-20.4 -3.22,-2.89 -13.11,-2.42 -14.58,2.46 -1.3,4.32 5.35,20.77 3.77,24.77 -0.79,2.01 -8.18,8.53 -10.3500001,11.17 -5.45,6.61 -8.22999998,14.48 -8.32999998,23 -0.23,20.73 12.02000008,33.460004 33.00000008,32.990004 2.49,-0.06 14.11,-1.040004 15.74,-2.010004 1.35,-0.81 5.69,-6.31 7.26,-7.98 10.52,-11.21 17.75,-30.67 19,-46 z m 85.999996,18 c 0,0 8.33,-26 8.33,-26 1.47,-4.39 7.88,-21.55 7.26,-24.96 -0.89,-4.96 -10.15,-8.65 -14.08,-5.3 -2.49,2.11 -6.55,16.37 -7.84,20.26 0,0 -16.67,51 -16.67,51 -1.53,4.63 -7.53,18.76 -5.59,22.790004 1.95,4.05 10.37,6.55 13.96,3.47 4.84,-4.150004 6.66,-22.070004 19.63,-24.050004 3.89,-0.59 9.68,0.29 12.96,2.51 4.7,3.18 6.68,9 10.37,13.24 6.69,7.710004 15.13,9.060004 24.67,10.190004 8.01,0.96 13.79,1.45 12.94,-9.150004 -0.8,-9.99 -9.16,-4.92 -17.93,-11.56 -6.07,-4.59 -8.67,-11.44 -14.05,-16.23 -9.04,-8.05 -22.7,-8.23 -33.96,-6.21 z m 187.6,-55.98 c -1.88,2.62 -2.54,10.54 -1.03,13.55 1.48,2.93 6.58,2.8 8.69,0.69 2.02,-2.01 5.31,-19.75 -7.66,-14.24 z m 13.27,-1.02 c -0.35,3.62 -1.68,10.45 0,13.77 1.33,3.13 6.84,4.33 9.14,1.49 1.55,-1.91 0.99,-12.34 0.99,-15.26 0,0 -10.13,0 -10.13,0 z m 101.13,0.87 c -6.53,2.74 -10.92,8.31 -16,13.04 0,0 -23,21.1 -23,21.1 -3.43,3.35 -10.94,9.37 -11.71,13.99 -0.95,5.79 4.83,10.2 8.71,13.58 0,0 27,24.84 27,24.84 2.63,2.29 7.96,7.910004 11,8.740004 5.27,1.42 11.91,-5.990004 10.22,-11.150004 -1.03,-3.13 -4.85,-5.88 -7.22,-8.1 0,0 -18,-16.82 -18,-16.82 -2.05,-1.91 -7.04,-5.7 -7.95,-8.1 -1.48,-3.92 4.38,-8.5 6.95,-10.82 0,0 27.77,-26.17 27.77,-26.17 5.69,-7.07 -1.58,-14.04 -7.77,-14.13 z m 114,27.13 c 0,0 -25,0 -25,0 -2.46,0.01 -5.68,-0.11 -7.85,1.17 -3.76,2.22 -4.44,11.07 -1.41,14.09 1.8,1.8 4.9,1.7 7.26,1.74 0,0 27,0 27,0 0,0 0,20 0,20 0.01,1.91 -0.08,5.04 0.74,6.75 1.86,3.88 10.79,4.32 13.66,1.51 1.81,-1.77 1.58,-4.92 1.6,-7.26 0,0 0,-21 0,-21 0,0 21,0 21,0 2.3,-0.05 4.72,0.01 6.57,-1.6 3.52,-3.06 3.31,-11.72 -0.8,-14.23 -2.12,-1.29 -5.35,-1.16 -7.77,-1.17 0,0 -19,0 -19,0 0,0 0,-16 0,-16 0,-2.19 0.21,-5.84 -1.02,-7.69 -2.04,-3.05 -10.89,-3.2 -13.38,-0.71 -1.64,1.63 -1.56,4.26 -1.6,6.4 0,0 0,18 0,18 z m 110,41 c 0,0 0,-28 0,-28 -0.01,-5.85 0.4,-11.16 -7,-11.89 -7.22,-0.71 -9.87,1.94 -10,8.89 0,0 0,42 0,42 0,1.89 -0.12,5.18 0.6,6.87 1.84,4.36 8.45,4.69 12.27,3.1 3.28,-1.37 3.25,-3.47 5.54,-4.96 2.17,-1.41 4.89,-0.8 6.57,-3.32 0.85,-1.28 0.98,-3.2 0.98,-4.69 0,-6.55 -3.17,-7.66 -8.96,-8 z m 67.11,-39.26 c -4.19,2.65 -4.04,4.54 -4.11,9.26 0,0 0,33 0,33 0.1,5.34 1.07,8.13 7,8.8 8.64,0.97 9.96,-3.56 10,-10.8 0,0 0,-26 0,-26 0,-2.93 0.42,-9.42 -1.02,-11.77 -2.41,-3.95 -8.06,-3.45 -11.87,-2.49 z m -696.109996,6.26 c -0.18,8.3 -4.61,27.7 -12,32 0,0 -6,-31 -6,-31 0,0 18,-1 18,-1 z m -33,11 c 0,0 7,31 7,31 -18.45,-1.03 -18.9,-24.81 -7,-31 z m 526.989996,31.81 c -3.3,1.32 -9.34,4.45 -10.18,8.23 -1.22,5.5 7.98,13.210004 12.19,15.600004 2.37,1.35 5.31,2.56 8,3.2 0,0 34,0 34,0 2.54,0.15 6.48,0.48 8.4,-1.44 2.49,-2.49 2.34,-11.340004 -0.71,-13.380004 -1.71,-1.14 -4.69,-1.01 -6.69,-1.02 -8.77,-0.06 -20.99,1.02 -29,-2.12 -6.25,-2.44 -10.07,-9.36 -16.01,-9.07 z"
     inkscape:connector-curvature="0"
     style="fill:#000000;stroke:none;stroke-width:1;fill-opacity:1" />
</svg>
